<svg width="152" height="42" viewBox="0 0 152 42" fill="none" xmlns="http://www.w3.org/2000/svg">
<path d="M26.9552 20.3732V14.418C26.9552 7.84001 21.6227 2.50752 15.0447 2.50752V2.50752C8.46677 2.50752 3.13428 7.84002 3.13428 14.418V32.5971" stroke="#6C5DD3" stroke-width="5.01493" stroke-linecap="round"/>
<path d="M15.0448 21.9402L15.0448 27.582C15.0448 34.16 20.3773 39.4925 26.9553 39.4925V39.4925C33.5332 39.4925 38.8657 34.16 38.8657 27.582L38.8657 9.40291" stroke="#6C5DD3" stroke-width="5.01493" stroke-linecap="round"/>
<path d="M2.50781 21.3134H39.4929" stroke="#6C5DD3" stroke-width="5.01493"/>
<rect x="2.50746" y="2.50746" width="36.9851" height="36.9851" rx="10.0299" stroke="#6C5DD3" stroke-width="5.01493"/>
<path d="M63.1914 10.6719V32H59.1777V10.6719H63.1914ZM69.8125 10.6719V13.8506H52.6299V10.6719H69.8125ZM81.9619 28.2354V16.1504H85.8584V32H82.1963L81.9619 28.2354ZM82.46 24.9541L83.6611 24.9248C83.6611 25.9893 83.5439 26.9707 83.3096 27.8691C83.0752 28.7676 82.709 29.5488 82.2109 30.2129C81.7227 30.8672 81.1025 31.3799 80.3506 31.751C79.5986 32.1123 78.71 32.293 77.6846 32.293C76.9033 32.293 76.1904 32.1855 75.5459 31.9707C74.9014 31.7461 74.3447 31.3994 73.876 30.9307C73.417 30.4521 73.0605 29.8418 72.8066 29.0996C72.5527 28.3477 72.4258 27.4443 72.4258 26.3896V16.1504H76.293V26.4189C76.293 26.9463 76.3516 27.3857 76.4688 27.7373C76.5957 28.0889 76.7666 28.377 76.9814 28.6016C77.2061 28.8164 77.4648 28.9727 77.7578 29.0703C78.0605 29.1582 78.3828 29.2021 78.7246 29.2021C79.6621 29.2021 80.3994 29.0166 80.9365 28.6455C81.4834 28.2646 81.874 27.7568 82.1084 27.1221C82.3428 26.4775 82.46 25.7549 82.46 24.9541ZM99.502 27.6641C99.502 27.332 99.4141 27.0342 99.2383 26.7705C99.0625 26.5068 98.7305 26.2676 98.2422 26.0527C97.7637 25.8281 97.0605 25.6182 96.1328 25.4229C95.3125 25.2471 94.5557 25.0273 93.8623 24.7637C93.1689 24.5 92.5732 24.1826 92.0752 23.8115C91.5771 23.4307 91.1865 22.9863 90.9033 22.4785C90.6299 21.9609 90.4932 21.3652 90.4932 20.6914C90.4932 20.0371 90.6348 19.4219 90.918 18.8457C91.2012 18.2598 91.6113 17.7471 92.1484 17.3076C92.6855 16.8584 93.3398 16.5068 94.1113 16.2529C94.8828 15.9893 95.752 15.8574 96.7188 15.8574C98.0664 15.8574 99.2236 16.0771 100.19 16.5166C101.167 16.9561 101.914 17.5615 102.432 18.333C102.949 19.0947 103.208 19.9541 103.208 20.9111H99.3408C99.3408 20.4912 99.2432 20.1104 99.0479 19.7686C98.8623 19.4268 98.5742 19.1533 98.1836 18.9482C97.793 18.7334 97.2998 18.626 96.7041 18.626C96.167 18.626 95.7129 18.7139 95.3418 18.8896C94.9805 19.0654 94.707 19.2949 94.5215 19.5781C94.3359 19.8613 94.2432 20.1738 94.2432 20.5156C94.2432 20.7695 94.292 20.999 94.3896 21.2041C94.4971 21.3994 94.668 21.5801 94.9023 21.7461C95.1367 21.9121 95.4541 22.0635 95.8545 22.2002C96.2646 22.3369 96.7676 22.4688 97.3633 22.5957C98.5449 22.8301 99.5752 23.1426 100.454 23.5332C101.343 23.9141 102.036 24.4219 102.534 25.0566C103.032 25.6914 103.281 26.502 103.281 27.4883C103.281 28.1914 103.13 28.8359 102.827 29.4219C102.524 29.998 102.085 30.501 101.509 30.9307C100.933 31.3604 100.244 31.6973 99.4434 31.9414C98.6426 32.1758 97.7393 32.293 96.7334 32.293C95.2783 32.293 94.0479 32.0342 93.042 31.5166C92.0361 30.9893 91.2744 30.3252 90.7568 29.5244C90.2393 28.7139 89.9805 27.874 89.9805 27.0049H93.6865C93.7158 27.6201 93.8818 28.1133 94.1846 28.4844C94.4873 28.8555 94.8682 29.124 95.3271 29.29C95.7959 29.4463 96.2891 29.5244 96.8066 29.5244C97.3926 29.5244 97.8857 29.4463 98.2861 29.29C98.6865 29.124 98.9893 28.9043 99.1943 28.6309C99.3994 28.3477 99.502 28.0254 99.502 27.6641ZM114.229 29.2461C114.776 29.2461 115.265 29.1387 115.694 28.9238C116.124 28.709 116.466 28.4062 116.72 28.0156C116.983 27.625 117.125 27.1709 117.145 26.6533H120.792C120.772 27.7275 120.47 28.6895 119.884 29.5391C119.298 30.3887 118.517 31.0625 117.54 31.5605C116.573 32.0488 115.489 32.293 114.288 32.293C113.067 32.293 112.003 32.0879 111.095 31.6777C110.187 31.2676 109.43 30.6963 108.824 29.9639C108.229 29.2314 107.779 28.3818 107.477 27.415C107.184 26.4482 107.037 25.4131 107.037 24.3096V23.8408C107.037 22.7373 107.184 21.7021 107.477 20.7354C107.779 19.7686 108.229 18.9189 108.824 18.1865C109.43 17.4541 110.187 16.8828 111.095 16.4727C112.003 16.0625 113.062 15.8574 114.273 15.8574C115.553 15.8574 116.676 16.1064 117.643 16.6045C118.619 17.1025 119.381 17.8057 119.928 18.7139C120.484 19.6221 120.772 20.6914 120.792 21.9219H117.145C117.125 21.3555 116.998 20.8477 116.764 20.3984C116.529 19.9492 116.197 19.5879 115.768 19.3145C115.338 19.041 114.815 18.9043 114.2 18.9043C113.546 18.9043 112.999 19.041 112.56 19.3145C112.13 19.5879 111.793 19.9639 111.549 20.4424C111.314 20.9111 111.148 21.4385 111.051 22.0244C110.963 22.6006 110.919 23.2061 110.919 23.8408V24.3096C110.919 24.9541 110.963 25.5693 111.051 26.1553C111.148 26.7412 111.314 27.2686 111.549 27.7373C111.793 28.1963 112.13 28.5625 112.56 28.8359C112.999 29.1094 113.556 29.2461 114.229 29.2461ZM124.182 24.2363V23.9287C124.182 22.7666 124.348 21.6973 124.68 20.7207C125.012 19.7344 125.495 18.8799 126.13 18.1572C126.765 17.4346 127.541 16.873 128.459 16.4727C129.377 16.0625 130.422 15.8574 131.594 15.8574C132.785 15.8574 133.84 16.0625 134.758 16.4727C135.686 16.873 136.467 17.4346 137.102 18.1572C137.736 18.8799 138.22 19.7344 138.552 20.7207C138.884 21.6973 139.05 22.7666 139.05 23.9287V24.2363C139.05 25.3887 138.884 26.458 138.552 27.4443C138.22 28.4209 137.736 29.2754 137.102 30.0078C136.467 30.7305 135.69 31.292 134.772 31.6924C133.854 32.0928 132.805 32.293 131.623 32.293C130.451 32.293 129.401 32.0928 128.474 31.6924C127.546 31.292 126.765 30.7305 126.13 30.0078C125.495 29.2754 125.012 28.4209 124.68 27.4443C124.348 26.458 124.182 25.3887 124.182 24.2363ZM128.049 23.9287V24.2363C128.049 24.9297 128.117 25.5791 128.254 26.1846C128.391 26.79 128.601 27.3223 128.884 27.7812C129.167 28.2402 129.533 28.6016 129.982 28.8652C130.441 29.1191 130.988 29.2461 131.623 29.2461C132.248 29.2461 132.785 29.1191 133.234 28.8652C133.684 28.6016 134.05 28.2402 134.333 27.7812C134.626 27.3223 134.841 26.79 134.978 26.1846C135.114 25.5791 135.183 24.9297 135.183 24.2363V23.9287C135.183 23.2451 135.114 22.6055 134.978 22.0098C134.841 21.4043 134.626 20.8721 134.333 20.4131C134.05 19.9443 133.679 19.5781 133.22 19.3145C132.771 19.041 132.229 18.9043 131.594 18.9043C130.969 18.9043 130.432 19.041 129.982 19.3145C129.533 19.5781 129.167 19.9443 128.884 20.4131C128.601 20.8721 128.391 21.4043 128.254 22.0098C128.117 22.6055 128.049 23.2451 128.049 23.9287ZM150.862 16.1504V18.9336H141.78V16.1504H150.862ZM144.212 12.2539H148.094V27.4297C148.094 27.8984 148.157 28.2598 148.284 28.5137C148.411 28.7676 148.602 28.9385 148.855 29.0264C149.109 29.1143 149.412 29.1582 149.764 29.1582C150.018 29.1582 150.252 29.1436 150.467 29.1143C150.682 29.085 150.862 29.0557 151.009 29.0264L151.023 31.9268C150.701 32.0342 150.335 32.1221 149.925 32.1904C149.524 32.2588 149.07 32.293 148.562 32.293C147.693 32.293 146.932 32.1465 146.277 31.8535C145.623 31.5508 145.115 31.0674 144.754 30.4033C144.393 29.7295 144.212 28.8408 144.212 27.7373V12.2539Z" fill="black"/>
</svg>
